<svg xmlns="http://www.w3.org/2000/svg" viewBox="0 0 1922.8 212.88"><defs><style>.cls-1{fill:#9b3434;}.cls-2{fill:#d84848;}</style></defs><title>PokedexTab</title><g id="Layer_2" data-name="Layer 2"><g id="Layer_1-2" data-name="Layer 1"><path class="cls-1" d="M0,63H1922.79V130.8h-1270c-13.66,2-35.44,6.11-57.39,15.13-12.26,5-18,8.49-54.53,25.75-52.34,24.75-62.22,27.23-69.46,29.6-21.74,7.13-42.18,9.53-59.7,11.6H.41Z"/><path class="cls-2" d="M0,0H1922.8V115.08h-1271a308.1,308.1,0,0,0-56.36,13.73c-13.47,4.7-18.25,7.48-54.75,24.74-52.34,24.75-62,28.24-69.25,30.61a307.07,307.07,0,0,1-59.72,13H.43Z"/></g></g></svg>