<svg xmlns="http://www.w3.org/2000/svg" xmlns:xlink="http://www.w3.org/1999/xlink" width="107.012" height="107.012" viewBox="0 0 107.012 107.012"><defs><style>.a,.c{fill:#161616;}.a{stroke:#707070;}.b{clip-path:url(#a);}</style><clipPath id="a"><rect class="a" width="78.338" height="78.338"/></clipPath></defs><g class="b" transform="translate(0 39.169) rotate(-30)"><path class="c" d="M66.866,11.472A39.169,39.169,0,0,0,11.472,66.866a39.184,39.184,0,0,0,47.964,5.827,3.06,3.06,0,1,0-3.171-5.234,33.057,33.057,0,0,1-50-25.23H25.742a13.772,13.772,0,0,0,26.855,0H72.075a33,33,0,0,1-5.46,15.283,3.06,3.06,0,0,0,5.088,3.4,39.074,39.074,0,0,0-4.836-49.441ZM39.169,6.12A33.093,33.093,0,0,1,72.075,36.109H52.6a13.772,13.772,0,0,0-26.855,0H6.263A33.093,33.093,0,0,1,39.169,6.12Zm0,40.7a7.65,7.65,0,1,1,7.65-7.65A7.659,7.659,0,0,1,39.169,46.819Zm0,0" transform="translate(0 0)"/></g></svg>