<svg xmlns="http://www.w3.org/2000/svg" viewBox="0 0 1914.79 150.03"><defs><style>.cls-1{fill:#9b3434;}.cls-2{fill:#d84848;}</style></defs><title>PokedexTab</title><g id="Layer_2" data-name="Layer 2"><g id="Layer_1-2" data-name="Layer 1"><path class="cls-1" d="M0,44.42H1914.78V92.19H460.09c-9.62,1.42-25,4.3-40.44,10.67-8.64,3.56-12.71,6-38.44,18.15-36.89,17.44-43.85,19.19-49,20.86-15.32,5-29.73,6.72-42.08,8.17H.29Z"/><path class="cls-2" d="M0,0H1914.79V81.11H459.38a217.14,217.14,0,0,0-39.72,9.68c-9.5,3.31-12.86,5.27-38.59,17.44-36.89,17.44-43.7,19.9-48.8,21.57A216.42,216.42,0,0,1,290.18,139H.3Z"/></g></g></svg>