<svg xmlns="http://www.w3.org/2000/svg" width="1921" height="264.4" viewBox="0 0 1921 264.4"><defs><style>.a{fill:#9b3434;}.b{fill:#d84848;}</style></defs><path class="a" d="M0,78.27H1921v84.18H810.77c-17,2.5-44,7.59-71.27,18.8-15.23,6.27-22.39,10.54-67.73,32C606.77,244,594.49,247,585.5,250c-27,8.85-52.39,11.84-74.14,14.4H.51Z"/><path class="b" d="M0,0H1921V142.92H809.52a382.652,382.652,0,0,0-70,17.05c-16.73,5.83-22.66,9.29-68,30.72-65,30.73-77,35.07-86,38a381.37,381.37,0,0,1-74.16,16.14H.53Z"/></svg>