<svg xmlns="http://www.w3.org/2000/svg" xmlns:xlink="http://www.w3.org/1999/xlink" width="622.7" height="622.7" viewBox="0 0 622.7 622.7"><defs><style>.a{stroke:#707070;}.a,.c{fill:url(#a);}.b{clip-path:url(#b);}</style><linearGradient id="a" x1="0.5" x2="0.5" y2="1" gradientUnits="objectBoundingBox"><stop offset="0" stop-color="#f9f9f9" stop-opacity="0.6"/><stop offset="1" stop-color="#fff" stop-opacity="0.169"/></linearGradient><clipPath id="b"><rect class="a" width="455.848" height="455.848"/></clipPath></defs><g class="b" transform="translate(0 227.924) rotate(-30)"><path class="c" d="M389.09,66.757A227.924,227.924,0,0,0,66.757,389.09,228.008,228.008,0,0,0,345.857,423a17.805,17.805,0,1,0-18.45-30.459,191.975,191.975,0,0,1-99.483,27.694c-100.036,0-182.464-76.78-191.479-174.5H149.792a80.138,80.138,0,0,0,156.266,0H419.4a192,192,0,0,1-31.773,88.932,17.807,17.807,0,0,0,29.607,19.792,227.368,227.368,0,0,0-28.143-287.7ZM227.924,35.613c100.036,0,182.464,76.78,191.479,174.5H306.056a80.138,80.138,0,0,0-156.266,0H36.444c9.015-97.724,91.443-174.5,191.479-174.5Zm0,236.826a44.516,44.516,0,1,1,44.516-44.516A44.566,44.566,0,0,1,227.924,272.439Zm0,0" transform="translate(0 0)"/></g></svg>