<svg xmlns="http://www.w3.org/2000/svg" viewBox="0 0 32 32"><defs><style>.cls-1{fill:#2d2d2d;}.cls-2{fill:#d40e27;}.cls-3{fill:#e8e9e4;}.cls-4{fill:#d3d3d3;}.cls-5{fill:#c1102d;}.cls-6{fill:#d8d8d8;}</style></defs><title>Favicon</title><g id="Layer_2" data-name="Layer 2"><g id="Layer_1-2" data-name="Layer 1"><circle class="cls-1" cx="16" cy="16" r="16"/><path class="cls-2" d="M11.32,15A5,5,0,0,1,16,11,5,5,0,0,1,20.75,15H30.3A14,14,0,0,0,16,1.54,14,14,0,0,0,1.69,15Z"/><path class="cls-3" d="M20.73,17A5,5,0,0,1,16,20.74,5,5,0,0,1,11.35,17H1.7A14,14,0,0,0,16,30.31,14,14,0,0,0,30.3,17Z"/><path class="cls-3" d="M16,12.87A3.13,3.13,0,1,0,19.17,16,3.13,3.13,0,0,0,16,12.87ZM16,18a2,2,0,1,1,2-2A2,2,0,0,1,16,18Z"/><path class="cls-4" d="M6.27,17H1.7A14,14,0,0,0,16,30.35a14.41,14.41,0,0,0,2.61-.25A14.09,14.09,0,0,1,6.27,17Z"/><path class="cls-5" d="M18.33,1.82A14.43,14.43,0,0,0,16,1.58,13.94,13.94,0,0,0,1.69,15H6.26A14,14,0,0,1,18.33,1.82Z"/><circle class="cls-3" cx="16.04" cy="16" r="2.76"/><path class="cls-6" d="M16,14.24A1.76,1.76,0,1,1,14.28,16,1.76,1.76,0,0,1,16,14.24m0-2A3.76,3.76,0,1,0,19.79,16,3.76,3.76,0,0,0,16,12.24Z"/></g></g></svg>